<?xml version="1.0" encoding="UTF-8"?>
<!DOCTYPE svg PUBLIC "-//W3C//DTD SVG 1.1//EN" "http://www.w3.org/Graphics/SVG/1.1/DTD/svg11.dtd">
<svg xmlns="http://www.w3.org/2000/svg" version="1.1" width="260px" height="256px" style="shape-rendering:geometricPrecision; text-rendering:geometricPrecision; image-rendering:optimizeQuality; fill-rule:evenodd; clip-rule:evenodd" xmlns:xlink="http://www.w3.org/1999/xlink">
<g><path style="opacity:0.669" fill="#a9aaab" d="M 191.5,25.5 C 170.238,24.8387 148.905,24.5053 127.5,24.5C 106.156,24.5003 85.1559,25.167 64.5,26.5C 63.596,25.791 63.2627,24.791 63.5,23.5C 105.331,22.3353 147.331,22.1687 189.5,23C 190.756,23.4169 191.423,24.2502 191.5,25.5 Z"/></g>
<g><path style="opacity:0.999" fill="#fdfdfd" d="M 191.5,25.5 C 194.623,28.9758 196.957,32.9758 198.5,37.5C 198.427,39.0269 199.094,40.0269 200.5,40.5C 202.008,42.1815 203.008,44.1815 203.5,46.5C 203.427,48.0269 204.094,49.0269 205.5,49.5C 205.599,52.6393 206.932,54.9726 209.5,56.5C 210.674,57.5137 211.34,58.847 211.5,60.5C 211.427,62.0269 212.094,63.0269 213.5,63.5C 214.674,64.5137 215.34,65.847 215.5,67.5C 215.427,69.0269 216.094,70.0269 217.5,70.5C 218.674,71.5137 219.34,72.847 219.5,74.5C 219.599,77.6393 220.932,79.9726 223.5,81.5C 224.674,82.5137 225.34,83.847 225.5,85.5C 225.427,87.0269 226.094,88.0269 227.5,88.5C 229.341,90.8485 230.674,93.5152 231.5,96.5C 231.427,98.0269 232.094,99.0269 233.5,99.5C 234.674,100.514 235.34,101.847 235.5,103.5C 235.427,105.027 236.094,106.027 237.5,106.5C 240.593,110.347 242.926,114.68 244.5,119.5C 244.427,121.027 245.094,122.027 246.5,122.5C 247.053,124.939 247.053,127.273 246.5,129.5C 246.938,130.506 247.604,130.506 248.5,129.5C 249.386,130.325 249.719,131.325 249.5,132.5C 248.022,132.238 246.689,132.571 245.5,133.5C 245.846,134.696 246.346,134.696 247,133.5C 247.49,134.793 247.657,136.127 247.5,137.5C 241.667,148.505 235.334,159.172 228.5,169.5C 226.412,171.336 225.079,173.669 224.5,176.5C 224.672,177.492 224.338,178.158 223.5,178.5C 221.273,179.401 220.273,181.067 220.5,183.5C 219.02,185.412 217.02,186.579 214.5,187C 215.605,189.12 215.605,191.287 214.5,193.5C 214.672,194.492 214.338,195.158 213.5,195.5C 211.75,196.659 210.75,198.326 210.5,200.5C 208.75,201.659 207.75,203.326 207.5,205.5C 205,208.494 203,211.827 201.5,215.5C 199.412,217.336 198.079,219.669 197.5,222.5C 196.094,222.973 195.427,223.973 195.5,225.5C 194.312,226.684 193.145,226.684 192,225.5C 192.804,227.828 192.637,230.161 191.5,232.5C 190.163,233.315 189.163,234.482 188.5,236C 146.501,236.5 104.501,236.667 62.5,236.5C 65.5612,230.742 68.2279,224.742 70.5,218.5C 71.3764,218.631 72.0431,218.298 72.5,217.5C 74.1192,213.49 76.2858,209.823 79,206.5C 79.49,205.207 79.6567,203.873 79.5,202.5C 81.2503,201.341 82.2503,199.674 82.5,197.5C 84.2503,196.341 85.2503,194.674 85.5,192.5C 86.4972,192.53 87.1639,192.03 87.5,191C 88.8001,188.563 89.8001,186.063 90.5,183.5C 91.9063,183.027 92.573,182.027 92.5,180.5C 94.4077,179.514 95.4077,177.848 95.5,175.5C 97.0931,174.652 98.2597,173.319 99,171.5C 99.4828,170.552 99.6495,169.552 99.5,168.5C 101.408,167.514 102.408,165.848 102.5,163.5C 103.906,163.027 104.573,162.027 104.5,160.5C 107.415,158.349 109.082,155.349 109.5,151.5C 111.408,150.514 112.408,148.848 112.5,146.5C 114.408,145.514 115.408,143.848 115.5,141.5C 117.931,139.954 119.264,137.621 119.5,134.5C 119.328,133.508 119.662,132.842 120.5,132.5C 121.613,131.054 121.78,129.387 121,127.5C 117.643,120.77 113.81,114.437 109.5,108.5C 109.25,106.326 108.25,104.659 106.5,103.5C 106.509,101.692 106.009,100.025 105,98.5C 103.723,96.2528 102.223,94.2528 100.5,92.5C 98.5095,86.5106 95.5095,81.1773 91.5,76.5C 88.3594,68.0587 84.026,60.392 78.5,53.5C 78.2503,51.326 77.2503,49.6594 75.5,48.5C 73.9689,44.4329 72.1356,40.4329 70,36.5C 69.2411,34.9371 68.0744,33.9371 66.5,33.5C 66.5,33.1667 66.5,32.8333 66.5,32.5C 65.8333,30.5 65.1667,28.5 64.5,26.5C 85.1559,25.167 106.156,24.5003 127.5,24.5C 148.905,24.5053 170.238,24.8387 191.5,25.5 Z"/></g>
<g><path style="opacity:0.09" fill="#45464b" d="M 63.5,23.5 C 63.2627,24.791 63.596,25.791 64.5,26.5C 65.1667,28.5 65.8333,30.5 66.5,32.5C 63.4022,30.0177 62.4022,27.0177 63.5,23.5 Z"/></g>
<g><path style="opacity:0.129" fill="#59585e" d="M 66.5,33.5 C 68.0744,33.9371 69.2411,34.9371 70,36.5C 72.1356,40.4329 73.9689,44.4329 75.5,48.5C 72.263,43.7015 69.263,38.7015 66.5,33.5 Z"/></g>
<g><path style="opacity:0.118" fill="#606061" d="M 198.5,37.5 C 199.906,37.9731 200.573,38.9731 200.5,40.5C 199.094,40.0269 198.427,39.0269 198.5,37.5 Z"/></g>
<g><path style="opacity:0.141" fill="#6a7676" d="M 203.5,46.5 C 204.906,46.9731 205.573,47.9731 205.5,49.5C 204.094,49.0269 203.427,48.0269 203.5,46.5 Z"/></g>
<g><path style="opacity:0.09" fill="#4f4f50" d="M 75.5,48.5 C 77.2503,49.6594 78.2503,51.326 78.5,53.5C 76.7497,52.3406 75.7497,50.674 75.5,48.5 Z"/></g>
<g><path style="opacity:0.804" fill="#8d8e8f" d="M 205.5,49.5 C 207.588,51.3356 208.921,53.6689 209.5,56.5C 206.932,54.9726 205.599,52.6393 205.5,49.5 Z"/></g>
<g><path style="opacity:0.999" fill="#fcfcfc" d="M 49.5,205.5 C 49.573,203.973 48.9063,202.973 47.5,202.5C 46.9408,200.321 46.2741,198.154 45.5,196C 42.5469,192.603 40.2135,188.77 38.5,184.5C 37.8165,184.137 37.1499,183.804 36.5,183.5C 34.0764,180.992 32.4097,177.992 31.5,174.5C 31.2503,172.326 30.2503,170.659 28.5,169.5C 27.8305,166.151 26.1639,163.484 23.5,161.5C 22.6618,161.158 22.3284,160.492 22.5,159.5C 21.9862,157.634 21.3195,155.8 20.5,154C 21.1868,152.838 21.3534,151.672 21,150.5C 20.2825,151.451 19.4491,151.617 18.5,151C 17.8366,149.482 16.8366,148.315 15.5,147.5C 15.6458,144.229 14.3125,141.895 11.5,140.5C 9.80789,138.795 8.47456,136.795 7.5,134.5C 7.70381,131.482 8.03714,128.482 8.5,125.5C 10.9305,123.954 12.2639,121.621 12.5,118.5C 14.5587,116.74 15.892,114.406 16.5,111.5C 18.9305,109.954 20.2639,107.621 20.5,104.5C 23.4152,102.349 25.0819,99.3494 25.5,95.5C 28.4152,93.3494 30.0819,90.3494 30.5,86.5C 32.4077,85.5144 33.4077,83.8477 33.5,81.5C 36.4152,79.3494 38.0819,76.3494 38.5,72.5C 39.3764,72.6309 40.0431,72.2975 40.5,71.5C 42.8466,66.8068 45.1799,62.1401 47.5,57.5C 48.4584,57.0472 49.2917,56.3805 50,55.5C 50.3333,56.1667 50.6667,56.8333 51,57.5C 51.1667,82.1667 51.3333,106.833 51.5,131.5C 51.4998,156.509 50.8331,181.176 49.5,205.5 Z"/></g>
<g><path style="opacity:0.533" fill="#767779" d="M 47.5,55.5 C 47.5,56.1667 47.5,56.8333 47.5,57.5C 45.1799,62.1401 42.8466,66.8068 40.5,71.5C 40.0431,72.2975 39.3764,72.6309 38.5,72.5C 40.7396,66.3504 43.7396,60.6837 47.5,55.5 Z"/></g>
<g><path style="opacity:0.125" fill="#645f64" d="M 211.5,60.5 C 212.906,60.9731 213.573,61.9731 213.5,63.5C 212.094,63.0269 211.427,62.0269 211.5,60.5 Z"/></g>
<g><path style="opacity:0.212" fill="#5d5d5f" d="M 78.5,53.5 C 84.026,60.392 88.3594,68.0587 91.5,76.5C 86.4106,69.3278 82.0773,61.6612 78.5,53.5 Z"/></g>
<g><path style="opacity:0.094" fill="#4d5153" d="M 215.5,67.5 C 216.906,67.9731 217.573,68.9731 217.5,70.5C 216.094,70.0269 215.427,69.0269 215.5,67.5 Z"/></g>
<g><path style="opacity:0.855" fill="#8e8e91" d="M 219.5,74.5 C 221.588,76.3356 222.921,78.6689 223.5,81.5C 220.932,79.9726 219.599,77.6393 219.5,74.5 Z"/></g>
<g><path style="opacity:0.729" fill="#a0a1a5" d="M 38.5,72.5 C 38.0819,76.3494 36.4152,79.3494 33.5,81.5C 34.4097,78.0078 36.0764,75.0078 38.5,72.5 Z"/></g>
<g><path style="opacity:0.161" fill="#676869" d="M 91.5,76.5 C 95.5095,81.1773 98.5095,86.5106 100.5,92.5C 96.9969,87.4984 93.9969,82.165 91.5,76.5 Z"/></g>
<g><path style="opacity:0.804" fill="#d3d4db" d="M 52.5,205.5 C 51.5,206.833 50.5,206.833 49.5,205.5C 50.8331,181.176 51.4998,156.509 51.5,131.5C 51.3333,106.833 51.1667,82.1667 51,57.5C 50.6667,56.8333 50.3333,56.1667 50,55.5C 49.2917,56.3805 48.4584,57.0472 47.5,57.5C 47.5,56.8333 47.5,56.1667 47.5,55.5C 48.6697,53.7215 50.3364,52.7215 52.5,52.5C 52.5,103.5 52.5,154.5 52.5,205.5 Z"/></g>
<g><path style="opacity:0.678" fill="#939393" d="M 33.5,81.5 C 33.4077,83.8477 32.4077,85.5144 30.5,86.5C 30.7497,84.326 31.7497,82.6594 33.5,81.5 Z"/></g>
<g><path style="opacity:0.102" fill="#525359" d="M 225.5,85.5 C 226.906,85.9731 227.573,86.9731 227.5,88.5C 226.094,88.0269 225.427,87.0269 225.5,85.5 Z"/></g>
<g><path style="opacity:0.702" fill="#96979a" d="M 30.5,86.5 C 30.0819,90.3494 28.4152,93.3494 25.5,95.5C 26.4097,92.0078 28.0764,89.0078 30.5,86.5 Z"/></g>
<g><path style="opacity:0.106" fill="#58595f" d="M 100.5,92.5 C 102.223,94.2528 103.723,96.2528 105,98.5C 106.009,100.025 106.509,101.692 106.5,103.5C 103.742,100.322 101.742,96.6553 100.5,92.5 Z"/></g>
<g><path style="opacity:0.145" fill="#787879" d="M 231.5,96.5 C 232.906,96.9731 233.573,97.9731 233.5,99.5C 232.094,99.0269 231.427,98.0269 231.5,96.5 Z"/></g>
<g><path style="opacity:0.78" fill="#a09fa6" d="M 25.5,95.5 C 25.0819,99.3494 23.4152,102.349 20.5,104.5C 21.4097,101.008 23.0764,98.0078 25.5,95.5 Z"/></g>
<g><path style="opacity:0.086" fill="#414141" d="M 106.5,103.5 C 108.25,104.659 109.25,106.326 109.5,108.5C 107.75,107.341 106.75,105.674 106.5,103.5 Z"/></g>
<g><path style="opacity:0.133" fill="#69696b" d="M 235.5,103.5 C 236.906,103.973 237.573,104.973 237.5,106.5C 236.094,106.027 235.427,105.027 235.5,103.5 Z"/></g>
<g><path style="opacity:0.678" fill="#949698" d="M 20.5,104.5 C 20.2639,107.621 18.9305,109.954 16.5,111.5C 17.0787,108.669 18.412,106.336 20.5,104.5 Z"/></g>
<g><path style="opacity:0.206" fill="#434448" d="M 52.5,205.5 C 52.5,154.5 52.5,103.5 52.5,52.5C 50.3364,52.7215 48.6697,53.7215 47.5,55.5C 47.5062,53.1556 48.6729,51.8223 51,51.5C 52.3261,51.7549 53.3261,52.4216 54,53.5C 53.4324,87.8275 53.599,122.161 54.5,156.5C 54.3333,172.167 54.1667,187.833 54,203.5C 53.7216,204.416 53.2216,205.082 52.5,205.5 Z"/></g>
<g><path style="opacity:0.145" fill="#5e6162" d="M 109.5,108.5 C 113.81,114.437 117.643,120.77 121,127.5C 121.78,129.387 121.613,131.054 120.5,132.5C 120.657,131.127 120.49,129.793 120,128.5C 116.22,121.937 112.72,115.271 109.5,108.5 Z"/></g>
<g><path style="opacity:0.737" fill="#87878b" d="M 16.5,111.5 C 15.892,114.406 14.5587,116.74 12.5,118.5C 13.0787,115.669 14.412,113.336 16.5,111.5 Z"/></g>
<g><path style="opacity:0.157" fill="#6e6e73" d="M 244.5,119.5 C 245.906,119.973 246.573,120.973 246.5,122.5C 245.094,122.027 244.427,121.027 244.5,119.5 Z"/></g>
<g><path style="opacity:0.631" fill="#87888a" d="M 12.5,118.5 C 12.2639,121.621 10.9305,123.954 8.5,125.5C 9.0787,122.669 10.412,120.336 12.5,118.5 Z"/></g>
<g><path style="opacity:0.557" fill="#7d7e85" d="M 8.5,125.5 C 8.03714,128.482 7.70381,131.482 7.5,134.5C 4.73275,131.214 5.06608,128.214 8.5,125.5 Z"/></g>
<g><path style="opacity:1" fill="#bdbec2" d="M 246.5,122.5 C 251.203,127.303 251.537,132.303 247.5,137.5C 247.657,136.127 247.49,134.793 247,133.5C 246.346,134.696 245.846,134.696 245.5,133.5C 246.689,132.571 248.022,132.238 249.5,132.5C 249.719,131.325 249.386,130.325 248.5,129.5C 247.604,130.506 246.938,130.506 246.5,129.5C 247.053,127.273 247.053,124.939 246.5,122.5 Z"/></g>
<g><path style="opacity:0.651" fill="#828788" d="M 119.5,134.5 C 119.264,137.621 117.931,139.954 115.5,141.5C 116.079,138.669 117.412,136.336 119.5,134.5 Z"/></g>
<g><path style="opacity:0.875" fill="#979899" d="M 11.5,140.5 C 14.3125,141.895 15.6458,144.229 15.5,147.5C 13.412,145.664 12.0787,143.331 11.5,140.5 Z"/></g>
<g><path style="opacity:0.671" fill="#797a7d" d="M 115.5,141.5 C 115.408,143.848 114.408,145.514 112.5,146.5C 112.75,144.326 113.75,142.659 115.5,141.5 Z"/></g>
<g><path style="opacity:0.935" fill="#939497" d="M 15.5,147.5 C 16.8366,148.315 17.8366,149.482 18.5,151C 19.4491,151.617 20.2825,151.451 21,150.5C 21.3534,151.672 21.1868,152.838 20.5,154C 21.3195,155.8 21.9862,157.634 22.5,159.5C 19.6654,155.836 17.332,151.836 15.5,147.5 Z"/></g>
<g><path style="opacity:0.698" fill="#7a7d80" d="M 112.5,146.5 C 112.408,148.848 111.408,150.514 109.5,151.5C 109.75,149.326 110.75,147.659 112.5,146.5 Z"/></g>
<g><path style="opacity:0.804" fill="#9a9ea1" d="M 109.5,151.5 C 109.082,155.349 107.415,158.349 104.5,160.5C 105.41,157.008 107.076,154.008 109.5,151.5 Z"/></g>
<g><path style="opacity:0.106" fill="#5e5e5f" d="M 104.5,160.5 C 104.573,162.027 103.906,163.027 102.5,163.5C 102.427,161.973 103.094,160.973 104.5,160.5 Z"/></g>
<g><path style="opacity:0.122" fill="#727275" d="M 23.5,161.5 C 26.1639,163.484 27.8305,166.151 28.5,169.5C 26.336,167.178 24.6693,164.511 23.5,161.5 Z"/></g>
<g><path style="opacity:0.592" fill="#757679" d="M 102.5,163.5 C 102.408,165.848 101.408,167.514 99.5,168.5C 99.7497,166.326 100.75,164.659 102.5,163.5 Z"/></g>
<g><path style="opacity:0.106" fill="#747475" d="M 28.5,169.5 C 30.2503,170.659 31.2503,172.326 31.5,174.5C 29.7497,173.341 28.7497,171.674 28.5,169.5 Z"/></g>
<g><path style="opacity:0.106" fill="#656567" d="M 228.5,169.5 C 227.921,172.331 226.588,174.664 224.5,176.5C 225.079,173.669 226.412,171.336 228.5,169.5 Z"/></g>
<g><path style="opacity:0.682" fill="#868993" d="M 99.5,168.5 C 99.6495,169.552 99.4828,170.552 99,171.5C 98.2597,173.319 97.0931,174.652 95.5,175.5C 96.0787,172.669 97.412,170.336 99.5,168.5 Z"/></g>
<g><path style="opacity:0.698" fill="#76767a" d="M 95.5,175.5 C 95.4077,177.848 94.4077,179.514 92.5,180.5C 92.7497,178.326 93.7497,176.659 95.5,175.5 Z"/></g>
<g><path style="opacity:0.086" fill="#6a6a6e" d="M 223.5,178.5 C 222.89,180.434 221.89,182.101 220.5,183.5C 220.273,181.067 221.273,179.401 223.5,178.5 Z"/></g>
<g><path style="opacity:0.082" fill="#393b41" d="M 92.5,180.5 C 92.573,182.027 91.9063,183.027 90.5,183.5C 90.427,181.973 91.0937,180.973 92.5,180.5 Z"/></g>
<g><path style="opacity:0.961" fill="#959599" d="M 220.5,183.5 C 219,187.173 217,190.506 214.5,193.5C 215.605,191.287 215.605,189.12 214.5,187C 217.02,186.579 219.02,185.412 220.5,183.5 Z"/></g>
<g><path style="opacity:0.184" fill="#77787a" d="M 36.5,183.5 C 37.1499,183.804 37.8165,184.137 38.5,184.5C 40.2135,188.77 42.5469,192.603 45.5,196C 46.2741,198.154 46.9408,200.321 47.5,202.5C 43.0791,196.666 39.4124,190.332 36.5,183.5 Z"/></g>
<g><path style="opacity:0.09" fill="#535659" d="M 90.5,183.5 C 89.8001,186.063 88.8001,188.563 87.5,191C 87.1639,192.03 86.4972,192.53 85.5,192.5C 86.4097,189.008 88.0764,186.008 90.5,183.5 Z"/></g>
<g><path style="opacity:0.078" fill="#404040" d="M 85.5,192.5 C 85.2503,194.674 84.2503,196.341 82.5,197.5C 82.7497,195.326 83.7497,193.659 85.5,192.5 Z"/></g>
<g><path style="opacity:0.122" fill="#55585c" d="M 213.5,195.5 C 213.25,197.674 212.25,199.341 210.5,200.5C 210.75,198.326 211.75,196.659 213.5,195.5 Z"/></g>
<g><path style="opacity:0.078" fill="#3a3a40" d="M 82.5,197.5 C 82.2503,199.674 81.2503,201.341 79.5,202.5C 79.7497,200.326 80.7497,198.659 82.5,197.5 Z"/></g>
<g><path style="opacity:0.129" fill="#5d5d5f" d="M 210.5,200.5 C 210.25,202.674 209.25,204.341 207.5,205.5C 207.75,203.326 208.75,201.659 210.5,200.5 Z"/></g>
<g><path style="opacity:0.122" fill="#555a5a" d="M 47.5,202.5 C 48.9063,202.973 49.573,203.973 49.5,205.5C 48.0937,205.027 47.427,204.027 47.5,202.5 Z"/></g>
<g><path style="opacity:0.592" fill="#808083" d="M 79.5,202.5 C 79.6567,203.873 79.49,205.207 79,206.5C 76.2858,209.823 74.1192,213.49 72.5,217.5C 72.0431,218.298 71.3764,218.631 70.5,218.5C 72.7072,212.65 75.7072,207.316 79.5,202.5 Z"/></g>
<g><path style="opacity:0.106" fill="#575859" d="M 207.5,205.5 C 206.502,209.505 204.502,212.839 201.5,215.5C 203,211.827 205,208.494 207.5,205.5 Z"/></g>
<g><path style="opacity:0.102" fill="#585858" d="M 201.5,215.5 C 200.921,218.331 199.588,220.664 197.5,222.5C 198.079,219.669 199.412,217.336 201.5,215.5 Z"/></g>
<g><path style="opacity:0.09" fill="#6a6a6b" d="M 197.5,222.5 C 197.573,224.027 196.906,225.027 195.5,225.5C 195.427,223.973 196.094,222.973 197.5,222.5 Z"/></g>
<g><path style="opacity:0.965" fill="#a0a1a3" d="M 195.5,225.5 C 194.921,228.331 193.588,230.664 191.5,232.5C 192.637,230.161 192.804,227.828 192,225.5C 193.145,226.684 194.312,226.684 195.5,225.5 Z"/></g>
<g><path style="opacity:0.186" fill="#808083" d="M 70.5,218.5 C 68.2279,224.742 65.5612,230.742 62.5,236.5C 104.501,236.667 146.501,236.5 188.5,236C 189.163,234.482 190.163,233.315 191.5,232.5C 191.249,234.17 190.582,235.67 189.5,237C 182.833,237.333 176.167,237.667 169.5,238C 133.5,238.125 97.4999,237.792 61.5,237C 60.4829,235.951 60.3162,234.784 61,233.5C 63.6916,228.097 66.8583,223.097 70.5,218.5 Z"/></g>
</svg>
