<svg id="svg" version="1.1" xmlns="http://www.w3.org/2000/svg" xmlns:xlink="http://www.w3.org/1999/xlink" width="400" height="400" viewBox="0, 0, 400,400"><g id="svgg"><path id="path0" d="M181.867 116.966 C 159.913 121.648,138.186 137.282,127.280 156.244 L 123.279 163.200 77.356 163.200 L 31.433 163.200 18.667 176.000 L 5.900 188.800 73.750 188.800 L 141.599 188.800 143.966 181.438 C 161.168 127.939,238.832 127.939,256.034 181.438 L 258.401 188.800 326.250 188.800 L 394.100 188.800 381.333 176.000 L 368.567 163.200 322.644 163.200 L 276.721 163.200 272.720 156.244 C 255.304 125.963,217.109 109.450,181.867 116.966 M186.456 165.697 C 148.995 181.431,159.516 236.195,200.000 236.195 C 247.820 236.195,248.861 165.233,201.067 163.461 C 194.002 163.199,191.488 163.584,186.456 165.697 M18.667 224.000 L 31.433 236.800 77.482 236.800 L 123.530 236.800 126.692 242.400 C 151.809 286.881,213.694 298.230,253.544 265.663 C 261.113 259.477,268.723 250.520,273.308 242.400 L 276.470 236.800 322.518 236.800 L 368.567 236.800 381.333 224.000 L 394.100 211.200 326.158 211.200 L 258.216 211.200 257.009 215.733 C 251.608 236.024,233.139 253.101,211.733 257.595 C 182.001 263.838,150.725 244.792,142.991 215.733 L 141.784 211.200 73.842 211.200 L 5.900 211.200 18.667 224.000 " stroke="none" fill="#000000" fill-rule="evenodd"></path></g></svg>